<svg width="19" height="19" viewBox="0 0 19 19" fill="none" xmlns="http://www.w3.org/2000/svg">
<path d="M5.11538 4.38462C5.11538 3.51742 5.37254 2.6697 5.85433 1.94866C6.33611 1.22761 7.0209 0.665622 7.82208 0.333761C8.62326 0.00189978 9.50486 -0.0849302 10.3554 0.0842511C11.2059 0.253432 11.9872 0.671027 12.6004 1.28423C13.2136 1.89743 13.6312 2.67869 13.8004 3.52922C13.9695 4.37975 13.8827 5.26135 13.5509 6.06254C13.219 6.86372 12.657 7.5485 11.936 8.03029C11.2149 8.51208 10.3672 8.76923 9.5 8.76923C8.33713 8.76923 7.22188 8.30728 6.39961 7.48501C5.57733 6.66273 5.11538 5.54749 5.11538 4.38462ZM16.8077 19H2.19231C1.61087 19 1.05325 18.769 0.642112 18.3579C0.230975 17.9468 0 17.3891 0 16.8077C0 15.0634 0.692924 13.3905 1.92634 12.1571C3.15975 10.9237 4.83261 10.2308 6.57692 10.2308H12.4231C14.1674 10.2308 15.8403 10.9237 17.0737 12.1571C18.3071 13.3905 19 15.0634 19 16.8077C19 17.3891 18.769 17.9468 18.3579 18.3579C17.9468 18.769 17.3891 19 16.8077 19Z" fill="#FF691A"/>
</svg>
