<svg width="23" height="19" viewBox="0 0 23 19" fill="none" xmlns="http://www.w3.org/2000/svg">
<path d="M4.99493 0.378242C5.10182 0.498017 5.18662 0.640252 5.24448 0.796815C5.30234 0.953378 5.33212 1.1212 5.33212 1.29068C5.33212 1.46016 5.30234 1.62798 5.24448 1.78455C5.18662 1.94111 5.10182 2.08335 4.99493 2.20312C3.26971 4.13867 2.30052 6.76365 2.30052 9.5007C2.30052 12.2378 3.26971 14.8627 4.99493 16.7983C5.10167 16.9181 5.18633 17.0603 5.24407 17.2169C5.30181 17.3734 5.3315 17.5411 5.33145 17.7105C5.3314 17.8799 5.3016 18.0476 5.24376 18.2041C5.18592 18.3606 5.10117 18.5028 4.99435 18.6225C4.88753 18.7422 4.76073 18.8372 4.62119 18.902C4.48166 18.9668 4.33211 19.0001 4.1811 19C4.03009 18.9999 3.88056 18.9665 3.74106 18.9016C3.60157 18.8368 3.47483 18.7417 3.36808 18.6219C-1.12269 13.5844 -1.12269 5.41568 3.36808 0.378242C3.47486 0.258334 3.60166 0.163209 3.74123 0.0983071C3.88081 0.0334055 4.03041 0 4.1815 0C4.33259 0 4.4822 0.0334055 4.62178 0.0983071C4.76135 0.163209 4.88815 0.258334 4.99493 0.378242ZM19.6319 0.378242C24.1227 5.41697 24.1227 13.5844 19.6319 18.6219C19.4151 18.8568 19.1247 18.9868 18.8232 18.9838C18.5218 18.9809 18.2334 18.8453 18.0202 18.6062C17.8071 18.367 17.6861 18.0436 17.6835 17.7054C17.6809 17.3673 17.7968 17.0415 18.0062 16.7983C19.7314 14.8627 20.7006 12.2378 20.7006 9.5007C20.7006 6.76365 19.7314 4.13867 18.0062 2.20312C17.7905 1.9613 17.6692 1.63325 17.6691 1.29114C17.669 0.949027 17.7901 0.620881 18.0057 0.378887C18.2212 0.136893 18.5137 0.000874257 18.8187 0.000753327C19.1236 0.000632397 19.4162 0.136419 19.6319 0.378242ZM8.40613 4.08474C8.62166 4.32659 8.74274 4.65456 8.74274 4.99654C8.74274 5.33851 8.62166 5.66648 8.40613 5.90833C7.98757 6.37779 7.65556 6.93512 7.42904 7.54852C7.20252 8.16191 7.08593 8.81935 7.08593 9.48329C7.08593 10.1472 7.20252 10.8047 7.42904 11.4181C7.65556 12.0315 7.98757 12.5888 8.40613 13.0582C8.51593 13.1772 8.60352 13.3195 8.66378 13.4769C8.72403 13.6342 8.75575 13.8034 8.75708 13.9747C8.7584 14.1459 8.72931 14.3157 8.6715 14.4742C8.6137 14.6327 8.52833 14.7767 8.42038 14.8978C8.31243 15.0189 8.18406 15.1147 8.04276 15.1795C7.90147 15.2444 7.75007 15.277 7.59742 15.2755C7.44476 15.274 7.29389 15.2384 7.15362 15.1708C7.01335 15.1033 6.88649 15.005 6.78043 14.8818C5.50405 13.45 4.78699 11.5081 4.78699 9.48329C4.78699 7.45845 5.50405 5.51654 6.78043 4.08474C6.99603 3.84297 7.28841 3.70715 7.59328 3.70715C7.89814 3.70715 8.19052 3.84297 8.40613 4.08474ZM16.407 4.08474C17.6834 5.51654 18.4004 7.45845 18.4004 9.48329C18.4004 11.5081 17.6834 13.45 16.407 14.8818C16.3002 15.0017 16.1735 15.0967 16.034 15.1616C15.8945 15.2265 15.745 15.2599 15.594 15.26C15.4429 15.26 15.2934 15.2267 15.1539 15.162C15.0143 15.0972 14.8875 15.0022 14.7807 14.8825C14.6739 14.7627 14.5891 14.6206 14.5313 14.4641C14.4735 14.3076 14.4437 14.1399 14.4436 13.9705C14.4436 13.8011 14.4732 13.6333 14.531 13.4768C14.5887 13.3203 14.6734 13.1781 14.7801 13.0582C15.1987 12.5888 15.5307 12.0315 15.7572 11.4181C15.9837 10.8047 16.1003 10.1472 16.1003 9.48329C16.1003 8.81935 15.9837 8.16191 15.7572 7.54852C15.5307 6.93512 15.1987 6.37779 14.7801 5.90833C14.5646 5.66634 14.4435 5.33819 14.4436 4.99608C14.4437 4.65397 14.565 4.32592 14.7807 4.0841C14.9964 3.84228 15.289 3.70649 15.594 3.70661C15.8989 3.70673 16.1914 3.84275 16.407 4.08474ZM11.5931 7.65712C11.8196 7.65712 12.0439 7.70716 12.2531 7.80438C12.4623 7.90159 12.6524 8.04409 12.8126 8.22372C12.9727 8.40336 13.0998 8.61662 13.1864 8.85132C13.2731 9.08602 13.3177 9.33758 13.3177 9.59162C13.3177 9.84566 13.2731 10.0972 13.1864 10.3319C13.0998 10.5666 12.9727 10.7799 12.8126 10.9595C12.6524 11.1392 12.4623 11.2816 12.2531 11.3789C12.0439 11.4761 11.8196 11.5261 11.5931 11.5261C11.1357 11.5261 10.6971 11.3223 10.3737 10.9595C10.0503 10.5967 9.86856 10.1047 9.86856 9.59162C9.86856 9.07856 10.0503 8.58651 10.3737 8.22372C10.6971 7.86093 11.1357 7.65712 11.5931 7.65712Z" fill="#BABDC4"/>
</svg>
